HIERARCHY
ROOT joint_0
{
	OFFSET 0.000000 0.000000 0.000000
	CHANNELS 6 Xposition Yposition Zposition Zrotation Yrotation Xrotation 
	JOINT joint_1
	{
		OFFSET 7.566162 2.250183 114.799927
		CHANNELS 3 Zrotation Yrotation Xrotation
		JOINT joint_2
		{
			OFFSET -5.201660 -0.414001 104.936035
			CHANNELS 3 Zrotation Yrotation Xrotation
			JOINT joint_3
			{
				OFFSET -6.923584 -0.419739 104.718018
				CHANNELS 3 Zrotation Yrotation Xrotation
				JOINT joint_4
				{
					OFFSET 3.108887 2.881104 149.449951
					CHANNELS 3 Zrotation Yrotation Xrotation
					JOINT joint_5
					{
						OFFSET 19.988770 5.920349 90.786987
						CHANNELS 3 Zrotation Yrotation Xrotation
						End Site
						{
							OFFSET 0.000000 0.000000 0.000000
						}
					}
				}
				JOINT joint_6
				{
					OFFSET 9.283936 -30.015930 84.410034
					CHANNELS 3 Zrotation Yrotation Xrotation
					JOINT joint_7
					{
						OFFSET 47.243164 -155.716736 -23.241089
						CHANNELS 3 Zrotation Yrotation Xrotation
						JOINT joint_8
						{
							OFFSET 31.323730 -15.356873 -268.798950
							CHANNELS 3 Zrotation Yrotation Xrotation
							JOINT joint_9
							{
								OFFSET 28.122314 -2.114624 -262.450012
								CHANNELS 3 Zrotation Yrotation Xrotation
								End Site
								{
									OFFSET 0.000000 0.000000 0.000000
								}
							}
						}
					}
				}
				JOINT joint_10
				{
					OFFSET -5.580566 33.311218 83.498047
					CHANNELS 3 Zrotation Yrotation Xrotation
					JOINT joint_11
					{
						OFFSET -22.773438 160.515381 -27.138062
						CHANNELS 3 Zrotation Yrotation Xrotation
						JOINT joint_12
						{
							OFFSET 27.004395 30.848877 -267.937988
							CHANNELS 3 Zrotation Yrotation Xrotation
							JOINT joint_13
							{
								OFFSET 32.625000 14.824585 -261.518005
								CHANNELS 3 Zrotation Yrotation Xrotation
								End Site
								{
									OFFSET 0.000000 0.000000 0.000000
								}
							}
						}
					}
				}
			}
		}
	}
	JOINT joint_14
	{
		OFFSET 20.623535 -83.447632 -106.174011
		CHANNELS 3 Zrotation Yrotation Xrotation
		JOINT joint_15
		{
			OFFSET 0.661865 -23.563843 -459.915039
			CHANNELS 3 Zrotation Yrotation Xrotation
			JOINT joint_16
			{
				OFFSET -23.461670 -28.727966 -444.760971
				CHANNELS 3 Zrotation Yrotation Xrotation
				JOINT joint_17
				{
					OFFSET 178.992920 54.047363 -80.113001
					CHANNELS 3 Zrotation Yrotation Xrotation
					End Site
					{
						OFFSET 0.000000 0.000000 0.000000
					}
				}
			}
		}
	}
	JOINT joint_18
	{
		OFFSET -19.571533 84.686279 -105.380005
		CHANNELS 3 Zrotation Yrotation Xrotation
		JOINT joint_19
		{
			OFFSET -22.949951 3.639404 -459.933044
			CHANNELS 3 Zrotation Yrotation Xrotation
			JOINT joint_20
			{
				OFFSET -33.690674 4.092651 -445.010971
				CHANNELS 3 Zrotation Yrotation Xrotation
				JOINT joint_21
				{
					OFFSET 187.419678 18.953857 -76.759001
					CHANNELS 3 Zrotation Yrotation Xrotation
					End Site
					{
						OFFSET 0.000000 0.000000 0.000000
					}
				}
			}
		}
	}
}
MOTION
Frames: 18
Frame Time: 0.016667
-3406.390625 885.980042 1113.911987 -8.983315 8.887462 -2.837500 0.537379 2.431095 1.058472 0.325766 -0.403733 -0.266462 0.352123 0.535831 0.113841 0.144199 -1.710439 -0.175926 0.000000 0.000000 0.000000 -0.248798 1.805108 -0.237464 0.108039 2.034472 0.592428 0.609462 -0.206841 4.974755 0.000000 0.000000 0.000000 2.514732 2.326049 -0.373791 -0.309269 1.398806 -3.578931 0.090149 1.786310 -0.162633 0.000000 0.000000 0.000000 -2.170970 -1.943584 1.523404 -2.145603 -2.094780 0.693770 -2.211707 -0.377177 -0.858818 0.000000 0.000000 0.000000 3.490897 -5.066089 5.318404 3.843112 2.548180 -1.049155 3.630955 -0.288747 1.495068 0.000000 0.000000 0.000000 
-3406.468750 886.094971 1113.961060 -8.983645 8.741991 -2.818369 0.561177 2.397305 1.033471 0.356041 -0.393312 -0.252596 0.380663 0.529038 0.102522 0.147984 -1.521745 -0.241805 0.000000 0.000000 0.000000 -0.241525 1.825107 -0.228136 0.084205 1.997273 0.407414 0.618717 -0.239909 5.052254 0.000000 0.000000 0.000000 2.509334 2.291130 -0.399568 -0.306226 1.375458 -3.532577 0.076263 1.726906 -0.240274 0.000000 0.000000 0.000000 -2.174811 -1.809082 1.519609 -2.146197 -2.062103 0.644376 -2.212624 -0.370159 -0.861426 0.000000 0.000000 0.000000 3.485005 -4.988958 5.290763 3.835312 2.704861 -1.015154 3.623877 -0.335936 1.496968 0.000000 0.000000 0.000000 
-3406.595947 886.226868 1114.027954 -8.990913 8.598098 -2.800656 0.580117 2.340301 1.009904 0.382716 -0.381275 -0.239639 0.405747 0.515733 0.092460 0.147789 -1.317144 -0.294694 0.000000 0.000000 0.000000 -0.244251 1.842616 -0.228652 0.061892 1.969912 0.258214 0.629269 -0.335477 5.130128 0.000000 0.000000 0.000000 2.513664 2.274791 -0.409063 -0.305022 1.361960 -3.518619 0.061947 1.659658 -0.318211 0.000000 0.000000 0.000000 -2.172187 -1.686743 1.505651 -2.141091 -2.018233 0.609857 -2.206126 -0.362031 -0.861123 0.000000 0.000000 0.000000 3.480451 -4.908544 5.267192 3.829307 2.848120 -0.989901 3.617898 -0.381856 1.499208 0.000000 0.000000 0.000000 
-3406.787109 886.405701 1114.130981 -9.002769 8.475484 -2.783957 0.591666 2.240401 0.986534 0.404229 -0.368300 -0.228181 0.425947 0.496652 0.085162 0.141679 -1.088259 -0.328468 0.000000 0.000000 0.000000 -0.263334 1.853204 -0.250832 0.043195 1.960079 0.176086 0.635781 -0.506824 5.165543 0.000000 0.000000 0.000000 2.528530 2.282538 -0.391396 -0.307914 1.357218 -3.569121 0.052165 1.583433 -0.356629 0.000000 0.000000 0.000000 -2.160394 -1.603306 1.469979 -2.128647 -1.955331 0.606350 -2.188864 -0.354402 -0.855949 0.000000 0.000000 0.000000 3.475450 -4.840095 5.250690 3.824133 2.963031 -0.984888 3.611409 -0.420149 1.500518 0.000000 0.000000 0.000000 
-3407.026123 886.600525 1114.254028 -9.021567 8.354718 -2.768386 0.598699 2.116272 0.963729 0.422385 -0.353634 -0.217379 0.442992 0.472459 0.080252 0.132329 -0.845039 -0.351739 0.000000 0.000000 0.000000 -0.292714 1.860820 -0.282892 0.026054 1.959257 0.128894 0.643878 -0.740500 5.201775 0.000000 0.000000 0.000000 2.551205 2.308243 -0.358591 -0.312573 1.362301 -3.651327 0.041964 1.499442 -0.395077 0.000000 0.000000 0.000000 -2.141945 -1.532172 1.424153 -2.110328 -1.881335 0.617442 -2.164086 -0.345555 -0.847850 0.000000 0.000000 0.000000 3.471877 -4.768588 5.237906 3.820833 3.064314 -0.988533 3.606137 -0.456540 1.502153 0.000000 0.000000 0.000000 
-3407.289307 886.756348 1114.371948 -9.041283 8.206731 -2.751430 0.602624 2.010779 0.937136 0.436438 -0.339961 -0.209262 0.456238 0.450298 0.076683 0.120408 -0.614182 -0.360410 0.000000 0.000000 0.000000 -0.323712 1.855434 -0.306516 0.012764 1.950297 0.107974 0.650720 -0.950637 5.227640 0.000000 0.000000 0.000000 2.572488 2.336775 -0.320910 -0.316620 1.371001 -3.725777 0.034960 1.435113 -0.418664 0.000000 0.000000 0.000000 -2.125477 -1.426972 1.384158 -2.092543 -1.816503 0.619757 -2.141158 -0.337639 -0.840290 0.000000 0.000000 0.000000 3.467841 -4.672810 5.228211 3.816696 3.175808 -0.991372 3.599870 -0.497778 1.503866 0.000000 0.000000 0.000000 
-3407.548340 886.842163 1114.485962 -9.060708 8.009576 -2.731891 0.602216 1.946655 0.901621 0.444404 -0.330026 -0.203685 0.463647 0.436775 0.074030 0.104926 -0.403453 -0.348319 0.000000 0.000000 0.000000 -0.349959 1.829752 -0.312269 0.004519 1.924133 0.114347 0.654806 -1.105001 5.236232 0.000000 0.000000 0.000000 2.592397 2.365448 -0.277502 -0.319784 1.381550 -3.785458 0.033544 1.401428 -0.413838 0.000000 0.000000 0.000000 -2.114767 -1.255145 1.357271 -2.077532 -1.772664 0.602233 -2.124126 -0.326603 -0.836276 0.000000 0.000000 0.000000 3.463644 -4.527641 5.221660 3.811407 3.299013 -0.989770 3.592577 -0.542635 1.505499 0.000000 0.000000 0.000000 
-3407.830322 886.887939 1114.597046 -9.080802 7.785063 -2.710787 0.598685 1.900323 0.861775 0.448439 -0.320586 -0.200466 0.467418 0.426461 0.072867 0.087094 -0.206791 -0.322121 0.000000 0.000000 0.000000 -0.377656 1.790886 -0.309493 0.000106 1.889578 0.146896 0.657567 -1.236031 5.234915 0.000000 0.000000 0.000000 2.609594 2.396462 -0.229322 -0.322405 1.395422 -3.837597 0.035331 1.387289 -0.393707 0.000000 0.000000 0.000000 -2.106362 -1.048869 1.336117 -2.063411 -1.738214 0.575927 -2.109304 -0.315658 -0.833213 0.000000 0.000000 0.000000 3.458981 -4.357897 5.217962 3.805309 3.432123 -0.987318 3.584311 -0.591430 1.507120 0.000000 0.000000 0.000000 
-3408.195312 886.920654 1114.680054 -9.097483 7.571015 -2.688969 0.592985 1.845613 0.823085 0.450548 -0.310795 -0.195406 0.469013 0.414145 0.070225 0.071783 -0.029785 -0.301274 0.000000 0.000000 0.000000 -0.405625 1.749023 -0.305968 -0.002024 1.855834 0.193484 0.660506 -1.355190 5.235167 0.000000 0.000000 0.000000 2.626721 2.421462 -0.187651 -0.323575 1.408050 -3.863862 0.036894 1.390104 -0.383863 0.000000 0.000000 0.000000 -2.097978 -0.859957 1.316379 -2.050301 -1.698494 0.548940 -2.094451 -0.317489 -0.826279 0.000000 0.000000 0.000000 3.450659 -4.219827 5.217496 3.796461 3.596206 -0.987662 3.572554 -0.653033 1.508627 0.000000 0.000000 0.000000 
-3408.671387 886.947327 1114.737061 -9.105098 7.384722 -2.666945 0.583563 1.765904 0.784697 0.450216 -0.299068 -0.183572 0.467408 0.398243 0.064019 0.059972 0.125888 -0.289722 0.000000 0.000000 0.000000 -0.438058 1.704452 -0.304221 -0.001718 1.824039 0.256467 0.662891 -1.460852 5.232132 0.000000 0.000000 0.000000 2.644047 2.434962 -0.160274 -0.322369 1.417472 -3.847468 0.037622 1.417505 -0.392990 0.000000 0.000000 0.000000 -2.090716 -0.713905 1.297571 -2.040656 -1.642229 0.524320 -2.080608 -0.336748 -0.814529 0.000000 0.000000 0.000000 3.434648 -4.147722 5.223669 3.781794 3.816469 -0.994821 3.553648 -0.731905 1.508989 0.000000 0.000000 0.000000 
-3409.229492 886.960876 1114.766968 -9.108872 7.208717 -2.644257 0.571826 1.677918 0.747519 0.447701 -0.287896 -0.170277 0.463438 0.382120 0.056837 0.050842 0.260150 -0.284089 0.000000 0.000000 0.000000 -0.470294 1.656696 -0.301418 0.000751 1.792653 0.332868 0.665411 -1.555234 5.230664 0.000000 0.000000 0.000000 2.661877 2.441846 -0.140503 -0.319689 1.425203 -3.804426 0.038196 1.462042 -0.412123 0.000000 0.000000 0.000000 -2.083770 -0.584663 1.280083 -2.032180 -1.581154 0.499379 -2.066966 -0.368085 -0.799222 0.000000 0.000000 0.000000 3.415121 -4.107080 5.233027 3.764426 4.067422 -1.004667 3.531243 -0.822784 1.509148 0.000000 0.000000 0.000000 
-3409.838379 886.965454 1114.745972 -9.120644 7.031893 -2.617900 0.562720 1.595426 0.711817 0.447046 -0.274973 -0.159231 0.461576 0.365592 0.050391 0.044638 0.371193 -0.285144 0.000000 0.000000 0.000000 -0.490941 1.615922 -0.296367 0.003031 1.767045 0.401843 0.671552 -1.654681 5.255818 0.000000 0.000000 0.000000 2.679553 2.449771 -0.123281 -0.316098 1.434957 -3.758151 0.036485 1.493840 -0.443081 0.000000 0.000000 0.000000 -2.072698 -0.450322 1.257491 -2.018648 -1.533773 0.475047 -2.049009 -0.410353 -0.778704 0.000000 0.000000 0.000000 3.400686 -4.053448 5.231213 3.750982 4.292650 -1.005227 3.513472 -0.916792 1.511514 0.000000 0.000000 0.000000 
-3410.500488 886.967957 1114.670044 -9.145457 6.844180 -2.584108 0.558315 1.536197 0.675027 0.449633 -0.266833 -0.150796 0.463284 0.354378 0.046302 0.043190 0.454401 -0.299832 0.000000 0.000000 0.000000 -0.489560 1.586392 -0.290199 0.003509 1.750283 0.452758 0.684615 -1.781751 5.329319 0.000000 0.000000 0.000000 2.699827 2.458411 -0.109056 -0.311343 1.445830 -3.710197 0.030454 1.498641 -0.494738 0.000000 0.000000 0.000000 -2.054387 -0.296491 1.224710 -1.996020 -1.508774 0.449702 -2.023653 -0.462225 -0.752015 0.000000 0.000000 0.000000 3.394573 -3.969794 5.208789 3.743673 4.480861 -0.988732 3.503307 -1.009975 1.516893 0.000000 0.000000 0.000000 
-3411.212402 886.960388 1114.542969 -9.178264 6.655758 -2.546274 0.556377 1.481709 0.638865 0.454136 -0.256990 -0.143912 0.467107 0.344372 0.042987 0.044995 0.512448 -0.322447 0.000000 0.000000 0.000000 -0.477264 1.563274 -0.282139 0.003764 1.738744 0.496172 0.701487 -1.914310 5.430190 0.000000 0.000000 0.000000 2.720226 2.467601 -0.097272 -0.305766 1.458132 -3.659162 0.022147 1.490902 -0.558287 0.000000 0.000000 0.000000 -2.031962 -0.137508 1.186633 -1.968404 -1.497646 0.424899 -1.994029 -0.525064 -0.720126 0.000000 0.000000 0.000000 3.393665 -3.873229 5.174999 3.740423 4.643405 -0.962899 3.497957 -1.107170 1.524644 0.000000 0.000000 0.000000 
-3411.943359 886.924866 1114.359985 -9.213336 6.483876 -2.510675 0.553831 1.407677 0.605765 0.458468 -0.246131 -0.136720 0.470709 0.330712 0.039479 0.047348 0.551768 -0.342936 0.000000 0.000000 0.000000 -0.469257 1.542114 -0.268147 0.005969 1.727266 0.541822 0.715948 -2.002181 5.518912 0.000000 0.000000 0.000000 2.738803 2.484028 -0.085028 -0.300838 1.475712 -3.623185 0.015692 1.483405 -0.607385 0.000000 0.000000 0.000000 -2.011024 0.006893 1.150013 -1.942497 -1.492194 0.407973 -1.965568 -0.598953 -0.685405 0.000000 0.000000 0.000000 3.396293 -3.770156 5.142524 3.740631 4.759214 -0.939758 3.496165 -1.212370 1.534678 0.000000 0.000000 0.000000 
-3412.662354 886.849304 1114.105957 -9.250376 6.336724 -2.479856 0.549817 1.297765 0.577532 0.462225 -0.230743 -0.130806 0.473957 0.310325 0.037708 0.049810 0.574603 -0.359938 0.000000 0.000000 0.000000 -0.473632 1.519661 -0.248095 0.011593 1.712830 0.594983 0.726310 -2.015698 5.587376 0.000000 0.000000 0.000000 2.756113 2.513517 -0.068678 -0.296937 1.502307 -3.612502 0.011925 1.473946 -0.634155 0.000000 0.000000 0.000000 -1.993333 0.125915 1.115686 -1.920778 -1.484071 0.404867 -1.939448 -0.688158 -0.647086 0.000000 0.000000 0.000000 3.403767 -3.654517 5.115102 3.745813 4.804354 -0.923750 3.499343 -1.331945 1.548224 0.000000 0.000000 0.000000 
-3413.400391 886.744751 1113.796021 -9.289471 6.206326 -2.450895 0.545263 1.167796 0.551137 0.465897 -0.214053 -0.123452 0.476971 0.286206 0.035487 0.052896 0.579430 -0.375323 0.000000 0.000000 0.000000 -0.482922 1.499119 -0.222995 0.019137 1.698888 0.651441 0.734166 -1.985148 5.643636 0.000000 0.000000 0.000000 2.770771 2.550489 -0.051343 -0.293688 1.534427 -3.617356 0.009988 1.464267 -0.646251 0.000000 0.000000 0.000000 -1.977230 0.230246 1.082541 -1.900829 -1.481945 0.409420 -1.914570 -0.788897 -0.605830 0.000000 0.000000 0.000000 3.414650 -3.532617 5.088630 3.754299 4.802887 -0.910148 3.506045 -1.460020 1.564093 0.000000 0.000000 0.000000 
-3414.206299 886.622192 1113.469971 -9.325198 6.085945 -2.422313 0.539999 1.030902 0.524774 0.468878 -0.194682 -0.114443 0.479122 0.261145 0.032231 0.055491 0.566484 -0.384244 0.000000 0.000000 0.000000 -0.494048 1.486086 -0.191036 0.026042 1.688716 0.703006 0.739261 -1.952086 5.679834 0.000000 0.000000 0.000000 2.779561 2.582672 -0.041073 -0.292029 1.562821 -3.626734 0.011666 1.477325 -0.641144 0.000000 0.000000 0.000000 -1.963639 0.333579 1.055065 -1.882317 -1.503940 0.410954 -1.893311 -0.889190 -0.566308 0.000000 0.000000 0.000000 3.424312 -3.426965 5.064844 3.762004 4.802149 -0.898422 3.511995 -1.580338 1.578877 0.000000 0.000000 0.000000 
